<?xml version="1.0" standalone="yes"?>
<!-- SVG graphic -->
<svg xmlns='http://www.w3.org/2000/svg' xmlns:xlink='http://www.w3.org/1999/xlink'
 version="1.1">
<rect x="0" y="0" width="6" height="200" stroke="black" stroke-width="1" fill="blue" tooltip="enable"><title>(0,6629)</title></rect><rect x="6" y="109.368" width="6" height="90.6321" stroke="black" stroke-width="1" fill="blue" tooltip="enable"><title>(0.0399064,3004)</title></rect><rect x="12" y="124.242" width="6" height="75.758" stroke="black" stroke-width="1" fill="blue" tooltip="enable"><title>(0.0798129,2511)</title></rect><rect x="18" y="135.194" width="6" height="64.8062" stroke="black" stroke-width="1" fill="blue" tooltip="enable"><title>(0.119719,2148)</title></rect><rect x="24" y="142.676" width="6" height="57.3239" stroke="black" stroke-width="1" fill="blue" tooltip="enable"><title>(0.159626,1900)</title></rect><rect x="30" y="145.814" width="6" height="54.1862" stroke="black" stroke-width="1" fill="blue" tooltip="enable"><title>(0.199532,1796)</title></rect><rect x="36" y="152.15" width="6" height="47.8504" stroke="black" stroke-width="1" fill="blue" tooltip="enable"><title>(0.239439,1586)</title></rect><rect x="42" y="155.74" width="6" height="44.2601" stroke="black" stroke-width="1" fill="blue" tooltip="enable"><title>(0.279345,1467)</title></rect><rect x="48" y="158.757" width="6" height="41.243" stroke="black" stroke-width="1" fill="blue" tooltip="enable"><title>(0.319251,1367)</title></rect><rect x="54" y="159.994" width="6" height="40.006" stroke="black" stroke-width="1" fill="blue" tooltip="enable"><title>(0.359158,1326)</title></rect><rect x="60" y="163.795" width="6" height="36.2046" stroke="black" stroke-width="1" fill="blue" tooltip="enable"><title>(0.399064,1200)</title></rect><rect x="66" y="166.45" width="6" height="33.5496" stroke="black" stroke-width="1" fill="blue" tooltip="enable"><title>(0.438971,1112)</title></rect><rect x="72" y="169.045" width="6" height="30.9549" stroke="black" stroke-width="1" fill="blue" tooltip="enable"><title>(0.478877,1026)</title></rect><rect x="78" y="170.192" width="6" height="29.8084" stroke="black" stroke-width="1" fill="blue" tooltip="enable"><title>(0.518784,988)</title></rect><rect x="84" y="173.178" width="6" height="26.8215" stroke="black" stroke-width="1" fill="blue" tooltip="enable"><title>(0.55869,889)</title></rect><rect x="90" y="175.2" width="6" height="24.8001" stroke="black" stroke-width="1" fill="blue" tooltip="enable"><title>(0.598597,822)</title></rect><rect x="96" y="179.001" width="6" height="20.9986" stroke="black" stroke-width="1" fill="blue" tooltip="enable"><title>(0.638503,696)</title></rect><rect x="102" y="179.243" width="6" height="20.7573" stroke="black" stroke-width="1" fill="blue" tooltip="enable"><title>(0.678409,688)</title></rect><rect x="108" y="180.54" width="6" height="19.4599" stroke="black" stroke-width="1" fill="blue" tooltip="enable"><title>(0.718316,645)</title></rect><rect x="114" y="180.54" width="6" height="19.4599" stroke="black" stroke-width="1" fill="blue" tooltip="enable"><title>(0.758222,645)</title></rect><rect x="120" y="182.924" width="6" height="17.0765" stroke="black" stroke-width="1" fill="blue" tooltip="enable"><title>(0.798129,566)</title></rect><rect x="126" y="183.135" width="6" height="16.8653" stroke="black" stroke-width="1" fill="blue" tooltip="enable"><title>(0.838035,559)</title></rect><rect x="132" y="186.001" width="6" height="13.9991" stroke="black" stroke-width="1" fill="blue" tooltip="enable"><title>(0.877942,464)</title></rect><rect x="138" y="186.604" width="6" height="13.3957" stroke="black" stroke-width="1" fill="blue" tooltip="enable"><title>(0.917848,444)</title></rect><rect x="144" y="187.721" width="6" height="12.2794" stroke="black" stroke-width="1" fill="blue" tooltip="enable"><title>(0.957754,407)</title></rect><rect x="150" y="187.721" width="6" height="12.2794" stroke="black" stroke-width="1" fill="blue" tooltip="enable"><title>(0.997661,407)</title></rect><rect x="156" y="189.682" width="6" height="10.3183" stroke="black" stroke-width="1" fill="blue" tooltip="enable"><title>(1.03757,342)</title></rect><rect x="162" y="191.16" width="6" height="8.83995" stroke="black" stroke-width="1" fill="blue" tooltip="enable"><title>(1.07747,293)</title></rect><rect x="168" y="190.436" width="6" height="9.56404" stroke="black" stroke-width="1" fill="blue" tooltip="enable"><title>(1.11738,317)</title></rect><rect x="174" y="190.979" width="6" height="9.02097" stroke="black" stroke-width="1" fill="blue" tooltip="enable"><title>(1.15729,299)</title></rect><rect x="180" y="191.975" width="6" height="8.02534" stroke="black" stroke-width="1" fill="blue" tooltip="enable"><title>(1.19719,266)</title></rect><rect x="186" y="193.966" width="6" height="6.03409" stroke="black" stroke-width="1" fill="blue" tooltip="enable"><title>(1.2371,200)</title></rect><rect x="192" y="193.423" width="6" height="6.57716" stroke="black" stroke-width="1" fill="blue" tooltip="enable"><title>(1.27701,218)</title></rect><rect x="198" y="193.664" width="6" height="6.3358" stroke="black" stroke-width="1" fill="blue" tooltip="enable"><title>(1.31691,210)</title></rect><rect x="204" y="194.962" width="6" height="5.03847" stroke="black" stroke-width="1" fill="blue" tooltip="enable"><title>(1.35682,167)</title></rect><rect x="210" y="195.203" width="6" height="4.7971" stroke="black" stroke-width="1" fill="blue" tooltip="enable"><title>(1.39673,159)</title></rect><rect x="216" y="195.173" width="6" height="4.82727" stroke="black" stroke-width="1" fill="blue" tooltip="enable"><title>(1.43663,160)</title></rect><rect x="222" y="195.686" width="6" height="4.31438" stroke="black" stroke-width="1" fill="blue" tooltip="enable"><title>(1.47654,143)</title></rect><rect x="228" y="196.47" width="6" height="3.52994" stroke="black" stroke-width="1" fill="blue" tooltip="enable"><title>(1.51644,117)</title></rect><rect x="234" y="196.53" width="6" height="3.4696" stroke="black" stroke-width="1" fill="blue" tooltip="enable"><title>(1.55635,115)</title></rect><rect x="240" y="196.47" width="6" height="3.52994" stroke="black" stroke-width="1" fill="blue" tooltip="enable"><title>(1.59626,117)</title></rect><rect x="246" y="197.043" width="6" height="2.95671" stroke="black" stroke-width="1" fill="blue" tooltip="enable"><title>(1.63616,98)</title></rect><rect x="252" y="196.923" width="6" height="3.07739" stroke="black" stroke-width="1" fill="blue" tooltip="enable"><title>(1.67607,102)</title></rect><rect x="258" y="197.798" width="6" height="2.20244" stroke="black" stroke-width="1" fill="blue" tooltip="enable"><title>(1.71598,73)</title></rect><rect x="264" y="197.888" width="6" height="2.11193" stroke="black" stroke-width="1" fill="blue" tooltip="enable"><title>(1.75588,70)</title></rect><rect x="270" y="198.039" width="6" height="1.96108" stroke="black" stroke-width="1" fill="blue" tooltip="enable"><title>(1.79579,65)</title></rect><rect x="276" y="198.461" width="6" height="1.53869" stroke="black" stroke-width="1" fill="blue" tooltip="enable"><title>(1.8357,51)</title></rect><rect x="282" y="197.828" width="6" height="2.17227" stroke="black" stroke-width="1" fill="blue" tooltip="enable"><title>(1.8756,72)</title></rect><rect x="288" y="198.491" width="6" height="1.50852" stroke="black" stroke-width="1" fill="blue" tooltip="enable"><title>(1.91551,50)</title></rect><rect x="294" y="198.673" width="6" height="1.3275" stroke="black" stroke-width="1" fill="blue" tooltip="enable"><title>(1.95542,44)</title></rect><rect x="300" y="198.522" width="6" height="1.47835" stroke="black" stroke-width="1" fill="blue" tooltip="enable"><title>(1.99532,49)</title></rect><rect x="306" y="198.944" width="6" height="1.05597" stroke="black" stroke-width="1" fill="blue" tooltip="enable"><title>(2.03523,35)</title></rect><rect x="312" y="198.763" width="6" height="1.23699" stroke="black" stroke-width="1" fill="blue" tooltip="enable"><title>(2.07513,41)</title></rect><rect x="318" y="198.944" width="6" height="1.05597" stroke="black" stroke-width="1" fill="blue" tooltip="enable"><title>(2.11504,35)</title></rect><rect x="324" y="198.914" width="6" height="1.08614" stroke="black" stroke-width="1" fill="blue" tooltip="enable"><title>(2.15495,36)</title></rect><rect x="330" y="199.065" width="6" height="0.935284" stroke="black" stroke-width="1" fill="blue" tooltip="enable"><title>(2.19485,31)</title></rect><rect x="336" y="199.397" width="6" height="0.603409" stroke="black" stroke-width="1" fill="blue" tooltip="enable"><title>(2.23476,20)</title></rect><rect x="342" y="199.487" width="6" height="0.512898" stroke="black" stroke-width="1" fill="blue" tooltip="enable"><title>(2.27467,17)</title></rect><rect x="348" y="199.155" width="6" height="0.844773" stroke="black" stroke-width="1" fill="blue" tooltip="enable"><title>(2.31457,28)</title></rect><rect x="354" y="199.608" width="6" height="0.392216" stroke="black" stroke-width="1" fill="blue" tooltip="enable"><title>(2.35448,13)</title></rect><rect x="360" y="199.276" width="6" height="0.724091" stroke="black" stroke-width="1" fill="blue" tooltip="enable"><title>(2.39439,24)</title></rect><rect x="366" y="199.125" width="6" height="0.874943" stroke="black" stroke-width="1" fill="blue" tooltip="enable"><title>(2.43429,29)</title></rect><rect x="372" y="199.246" width="6" height="0.754262" stroke="black" stroke-width="1" fill="blue" tooltip="enable"><title>(2.4742,25)</title></rect><rect x="378" y="199.427" width="6" height="0.573239" stroke="black" stroke-width="1" fill="blue" tooltip="enable"><title>(2.51411,19)</title></rect><rect x="384" y="199.578" width="6" height="0.422386" stroke="black" stroke-width="1" fill="blue" tooltip="enable"><title>(2.55401,14)</title></rect><rect x="390" y="199.638" width="6" height="0.362046" stroke="black" stroke-width="1" fill="blue" tooltip="enable"><title>(2.59392,12)</title></rect><rect x="396" y="199.608" width="6" height="0.392216" stroke="black" stroke-width="1" fill="blue" tooltip="enable"><title>(2.63382,13)</title></rect><rect x="402" y="199.487" width="6" height="0.512898" stroke="black" stroke-width="1" fill="blue" tooltip="enable"><title>(2.67373,17)</title></rect><rect x="408" y="199.668" width="6" height="0.331875" stroke="black" stroke-width="1" fill="blue" tooltip="enable"><title>(2.71364,11)</title></rect><rect x="414" y="199.728" width="6" height="0.271534" stroke="black" stroke-width="1" fill="blue" tooltip="enable"><title>(2.75354,9)</title></rect><rect x="420" y="199.789" width="6" height="0.211193" stroke="black" stroke-width="1" fill="blue" tooltip="enable"><title>(2.79345,7)</title></rect><rect x="426" y="199.728" width="6" height="0.271534" stroke="black" stroke-width="1" fill="blue" tooltip="enable"><title>(2.83336,9)</title></rect><rect x="432" y="199.789" width="6" height="0.211193" stroke="black" stroke-width="1" fill="blue" tooltip="enable"><title>(2.87326,7)</title></rect><rect x="438" y="199.728" width="6" height="0.271534" stroke="black" stroke-width="1" fill="blue" tooltip="enable"><title>(2.91317,9)</title></rect><rect x="444" y="199.638" width="6" height="0.362046" stroke="black" stroke-width="1" fill="blue" tooltip="enable"><title>(2.95308,12)</title></rect><rect x="450" y="199.789" width="6" height="0.211193" stroke="black" stroke-width="1" fill="blue" tooltip="enable"><title>(2.99298,7)</title></rect><rect x="456" y="199.668" width="6" height="0.331875" stroke="black" stroke-width="1" fill="blue" tooltip="enable"><title>(3.03289,11)</title></rect><rect x="462" y="199.879" width="6" height="0.120682" stroke="black" stroke-width="1" fill="blue" tooltip="enable"><title>(3.0728,4)</title></rect><rect x="468" y="199.849" width="6" height="0.150852" stroke="black" stroke-width="1" fill="blue" tooltip="enable"><title>(3.1127,5)</title></rect><rect x="474" y="199.97" width="6" height="0.0301705" stroke="black" stroke-width="1" fill="blue" tooltip="enable"><title>(3.15261,1)</title></rect><rect x="480" y="199.879" width="6" height="0.120682" stroke="black" stroke-width="1" fill="blue" tooltip="enable"><title>(3.19251,4)</title></rect><rect x="486" y="199.94" width="6" height="0.0603409" stroke="black" stroke-width="1" fill="blue" tooltip="enable"><title>(3.23242,2)</title></rect><rect x="492" y="199.879" width="6" height="0.120682" stroke="black" stroke-width="1" fill="blue" tooltip="enable"><title>(3.27233,4)</title></rect><rect x="498" y="199.909" width="6" height="0.0905114" stroke="black" stroke-width="1" fill="blue" tooltip="enable"><title>(3.31223,3)</title></rect><rect x="504" y="199.909" width="6" height="0.0905114" stroke="black" stroke-width="1" fill="blue" tooltip="enable"><title>(3.35214,3)</title></rect><rect x="510" y="199.94" width="6" height="0.0603409" stroke="black" stroke-width="1" fill="blue" tooltip="enable"><title>(3.39205,2)</title></rect><rect x="516" y="199.97" width="6" height="0.0301705" stroke="black" stroke-width="1" fill="blue" tooltip="enable"><title>(3.43195,1)</title></rect><rect x="522" y="199.849" width="6" height="0.150852" stroke="black" stroke-width="1" fill="blue" tooltip="enable"><title>(3.47186,5)</title></rect><rect x="528" y="199.97" width="6" height="0.0301705" stroke="black" stroke-width="1" fill="blue" tooltip="enable"><title>(3.51177,1)</title></rect><rect x="534" y="199.909" width="6" height="0.0905114" stroke="black" stroke-width="1" fill="blue" tooltip="enable"><title>(3.55167,3)</title></rect><rect x="540" y="200" width="6" height="0" stroke="black" stroke-width="1" fill="blue" tooltip="enable"><title>(3.59158,0)</title></rect><rect x="546" y="199.909" width="6" height="0.0905114" stroke="black" stroke-width="1" fill="blue" tooltip="enable"><title>(3.63149,3)</title></rect><rect x="552" y="200" width="6" height="0" stroke="black" stroke-width="1" fill="blue" tooltip="enable"><title>(3.67139,0)</title></rect><rect x="558" y="199.97" width="6" height="0.0301705" stroke="black" stroke-width="1" fill="blue" tooltip="enable"><title>(3.7113,1)</title></rect><rect x="564" y="199.909" width="6" height="0.0905114" stroke="black" stroke-width="1" fill="blue" tooltip="enable"><title>(3.7512,3)</title></rect><rect x="570" y="199.879" width="6" height="0.120682" stroke="black" stroke-width="1" fill="blue" tooltip="enable"><title>(3.79111,4)</title></rect><rect x="576" y="200" width="6" height="0" stroke="black" stroke-width="1" fill="blue" tooltip="enable"><title>(3.83102,0)</title></rect><rect x="582" y="199.909" width="6" height="0.0905114" stroke="black" stroke-width="1" fill="blue" tooltip="enable"><title>(3.87092,3)</title></rect><rect x="588" y="200" width="6" height="0" stroke="black" stroke-width="1" fill="blue" tooltip="enable"><title>(3.91083,0)</title></rect><rect x="594" y="199.94" width="6" height="0.0603409" stroke="black" stroke-width="1" fill="blue" tooltip="enable"><title>(3.95074,2)</title></rect><text x="30" y="240" font-size="20" fill="black">0</text>
<text x="600" y="240" font-size="20" fill="black">3.99064</text>
<polyline points="0,220,600,220" stroke="black" stroke-width="1" fill="none"/>
<text x="720" y="20" font-size="20" fill="black">6629</text>
<text x="720" y="200" font-size="20" fill="black">0</text>
<polyline points="660,0,660,200" stroke="black" stroke-width="1" fill="none"/>
</svg>