<?xml version="1.0" standalone="yes"?>
<!-- SVG graphic -->
<svg xmlns='http://www.w3.org/2000/svg' xmlns:xlink='http://www.w3.org/1999/xlink'
 version="1.1">
<rect x="0" y="0" width="6" height="200" stroke="black" stroke-width="1" fill="blue" tooltip="enable"><title>(0,6440)</title></rect><rect x="6" y="104.565" width="6" height="95.4348" stroke="black" stroke-width="1" fill="blue" tooltip="enable"><title>(0.0386037,3073)</title></rect><rect x="12" y="124.099" width="6" height="75.9006" stroke="black" stroke-width="1" fill="blue" tooltip="enable"><title>(0.0772074,2444)</title></rect><rect x="18" y="137.95" width="6" height="62.0497" stroke="black" stroke-width="1" fill="blue" tooltip="enable"><title>(0.115811,1998)</title></rect><rect x="24" y="140.217" width="6" height="59.7826" stroke="black" stroke-width="1" fill="blue" tooltip="enable"><title>(0.154415,1925)</title></rect><rect x="30" y="144.814" width="6" height="55.1863" stroke="black" stroke-width="1" fill="blue" tooltip="enable"><title>(0.193018,1777)</title></rect><rect x="36" y="149.317" width="6" height="50.6832" stroke="black" stroke-width="1" fill="blue" tooltip="enable"><title>(0.231622,1632)</title></rect><rect x="42" y="154.938" width="6" height="45.0621" stroke="black" stroke-width="1" fill="blue" tooltip="enable"><title>(0.270226,1451)</title></rect><rect x="48" y="156.894" width="6" height="43.1056" stroke="black" stroke-width="1" fill="blue" tooltip="enable"><title>(0.308829,1388)</title></rect><rect x="54" y="160.373" width="6" height="39.6273" stroke="black" stroke-width="1" fill="blue" tooltip="enable"><title>(0.347433,1276)</title></rect><rect x="60" y="162.64" width="6" height="37.3602" stroke="black" stroke-width="1" fill="blue" tooltip="enable"><title>(0.386037,1203)</title></rect><rect x="66" y="165.776" width="6" height="34.2236" stroke="black" stroke-width="1" fill="blue" tooltip="enable"><title>(0.42464,1102)</title></rect><rect x="72" y="167.795" width="6" height="32.205" stroke="black" stroke-width="1" fill="blue" tooltip="enable"><title>(0.463244,1037)</title></rect><rect x="78" y="170.714" width="6" height="29.2857" stroke="black" stroke-width="1" fill="blue" tooltip="enable"><title>(0.501848,943)</title></rect><rect x="84" y="172.112" width="6" height="27.8882" stroke="black" stroke-width="1" fill="blue" tooltip="enable"><title>(0.540452,898)</title></rect><rect x="90" y="174.441" width="6" height="25.559" stroke="black" stroke-width="1" fill="blue" tooltip="enable"><title>(0.579055,823)</title></rect><rect x="96" y="177.391" width="6" height="22.6087" stroke="black" stroke-width="1" fill="blue" tooltip="enable"><title>(0.617659,728)</title></rect><rect x="102" y="179.255" width="6" height="20.7453" stroke="black" stroke-width="1" fill="blue" tooltip="enable"><title>(0.656263,668)</title></rect><rect x="108" y="178.882" width="6" height="21.118" stroke="black" stroke-width="1" fill="blue" tooltip="enable"><title>(0.694866,680)</title></rect><rect x="114" y="180.683" width="6" height="19.3168" stroke="black" stroke-width="1" fill="blue" tooltip="enable"><title>(0.73347,622)</title></rect><rect x="120" y="182.609" width="6" height="17.3913" stroke="black" stroke-width="1" fill="blue" tooltip="enable"><title>(0.772074,560)</title></rect><rect x="126" y="183.602" width="6" height="16.3975" stroke="black" stroke-width="1" fill="blue" tooltip="enable"><title>(0.810677,528)</title></rect><rect x="132" y="184.099" width="6" height="15.9006" stroke="black" stroke-width="1" fill="blue" tooltip="enable"><title>(0.849281,512)</title></rect><rect x="138" y="185.87" width="6" height="14.1304" stroke="black" stroke-width="1" fill="blue" tooltip="enable"><title>(0.887885,455)</title></rect><rect x="144" y="187.609" width="6" height="12.3913" stroke="black" stroke-width="1" fill="blue" tooltip="enable"><title>(0.926488,399)</title></rect><rect x="150" y="187.981" width="6" height="12.0186" stroke="black" stroke-width="1" fill="blue" tooltip="enable"><title>(0.965092,387)</title></rect><rect x="156" y="187.981" width="6" height="12.0186" stroke="black" stroke-width="1" fill="blue" tooltip="enable"><title>(1.0037,387)</title></rect><rect x="162" y="189.969" width="6" height="10.0311" stroke="black" stroke-width="1" fill="blue" tooltip="enable"><title>(1.0423,323)</title></rect><rect x="168" y="189.752" width="6" height="10.2484" stroke="black" stroke-width="1" fill="blue" tooltip="enable"><title>(1.0809,330)</title></rect><rect x="174" y="191.211" width="6" height="8.78882" stroke="black" stroke-width="1" fill="blue" tooltip="enable"><title>(1.11951,283)</title></rect><rect x="180" y="191.491" width="6" height="8.50932" stroke="black" stroke-width="1" fill="blue" tooltip="enable"><title>(1.15811,274)</title></rect><rect x="186" y="193.137" width="6" height="6.86335" stroke="black" stroke-width="1" fill="blue" tooltip="enable"><title>(1.19671,221)</title></rect><rect x="192" y="193.261" width="6" height="6.73913" stroke="black" stroke-width="1" fill="blue" tooltip="enable"><title>(1.23532,217)</title></rect><rect x="198" y="193.727" width="6" height="6.27329" stroke="black" stroke-width="1" fill="blue" tooltip="enable"><title>(1.27392,202)</title></rect><rect x="204" y="193.975" width="6" height="6.02484" stroke="black" stroke-width="1" fill="blue" tooltip="enable"><title>(1.31253,194)</title></rect><rect x="210" y="194.876" width="6" height="5.12422" stroke="black" stroke-width="1" fill="blue" tooltip="enable"><title>(1.35113,165)</title></rect><rect x="216" y="194.72" width="6" height="5.2795" stroke="black" stroke-width="1" fill="blue" tooltip="enable"><title>(1.38973,170)</title></rect><rect x="222" y="195.683" width="6" height="4.31677" stroke="black" stroke-width="1" fill="blue" tooltip="enable"><title>(1.42834,139)</title></rect><rect x="228" y="196.429" width="6" height="3.57143" stroke="black" stroke-width="1" fill="blue" tooltip="enable"><title>(1.46694,115)</title></rect><rect x="234" y="195.373" width="6" height="4.62733" stroke="black" stroke-width="1" fill="blue" tooltip="enable"><title>(1.50554,149)</title></rect><rect x="240" y="195.683" width="6" height="4.31677" stroke="black" stroke-width="1" fill="blue" tooltip="enable"><title>(1.54415,139)</title></rect><rect x="246" y="196.708" width="6" height="3.29193" stroke="black" stroke-width="1" fill="blue" tooltip="enable"><title>(1.58275,106)</title></rect><rect x="252" y="196.894" width="6" height="3.10559" stroke="black" stroke-width="1" fill="blue" tooltip="enable"><title>(1.62135,100)</title></rect><rect x="258" y="196.957" width="6" height="3.04348" stroke="black" stroke-width="1" fill="blue" tooltip="enable"><title>(1.65996,98)</title></rect><rect x="264" y="197.64" width="6" height="2.36025" stroke="black" stroke-width="1" fill="blue" tooltip="enable"><title>(1.69856,76)</title></rect><rect x="270" y="197.578" width="6" height="2.42236" stroke="black" stroke-width="1" fill="blue" tooltip="enable"><title>(1.73717,78)</title></rect><rect x="276" y="198.075" width="6" height="1.92547" stroke="black" stroke-width="1" fill="blue" tooltip="enable"><title>(1.77577,62)</title></rect><rect x="282" y="198.043" width="6" height="1.95652" stroke="black" stroke-width="1" fill="blue" tooltip="enable"><title>(1.81437,63)</title></rect><rect x="288" y="197.422" width="6" height="2.57764" stroke="black" stroke-width="1" fill="blue" tooltip="enable"><title>(1.85298,83)</title></rect><rect x="294" y="198.354" width="6" height="1.64596" stroke="black" stroke-width="1" fill="blue" tooltip="enable"><title>(1.89158,53)</title></rect><rect x="300" y="198.758" width="6" height="1.24224" stroke="black" stroke-width="1" fill="blue" tooltip="enable"><title>(1.93018,40)</title></rect><rect x="306" y="198.727" width="6" height="1.27329" stroke="black" stroke-width="1" fill="blue" tooltip="enable"><title>(1.96879,41)</title></rect><rect x="312" y="198.882" width="6" height="1.11801" stroke="black" stroke-width="1" fill="blue" tooltip="enable"><title>(2.00739,36)</title></rect><rect x="318" y="199.224" width="6" height="0.776398" stroke="black" stroke-width="1" fill="blue" tooltip="enable"><title>(2.04599,25)</title></rect><rect x="324" y="199.224" width="6" height="0.776398" stroke="black" stroke-width="1" fill="blue" tooltip="enable"><title>(2.0846,25)</title></rect><rect x="330" y="198.851" width="6" height="1.14907" stroke="black" stroke-width="1" fill="blue" tooltip="enable"><title>(2.1232,37)</title></rect><rect x="336" y="198.913" width="6" height="1.08696" stroke="black" stroke-width="1" fill="blue" tooltip="enable"><title>(2.16181,35)</title></rect><rect x="342" y="199.224" width="6" height="0.776398" stroke="black" stroke-width="1" fill="blue" tooltip="enable"><title>(2.20041,25)</title></rect><rect x="348" y="199.037" width="6" height="0.962733" stroke="black" stroke-width="1" fill="blue" tooltip="enable"><title>(2.23901,31)</title></rect><rect x="354" y="199.441" width="6" height="0.559006" stroke="black" stroke-width="1" fill="blue" tooltip="enable"><title>(2.27762,18)</title></rect><rect x="360" y="199.255" width="6" height="0.745342" stroke="black" stroke-width="1" fill="blue" tooltip="enable"><title>(2.31622,24)</title></rect><rect x="366" y="199.565" width="6" height="0.434783" stroke="black" stroke-width="1" fill="blue" tooltip="enable"><title>(2.35482,14)</title></rect><rect x="372" y="199.472" width="6" height="0.52795" stroke="black" stroke-width="1" fill="blue" tooltip="enable"><title>(2.39343,17)</title></rect><rect x="378" y="199.317" width="6" height="0.68323" stroke="black" stroke-width="1" fill="blue" tooltip="enable"><title>(2.43203,22)</title></rect><rect x="384" y="199.472" width="6" height="0.52795" stroke="black" stroke-width="1" fill="blue" tooltip="enable"><title>(2.47064,17)</title></rect><rect x="390" y="199.348" width="6" height="0.652174" stroke="black" stroke-width="1" fill="blue" tooltip="enable"><title>(2.50924,21)</title></rect><rect x="396" y="199.534" width="6" height="0.465839" stroke="black" stroke-width="1" fill="blue" tooltip="enable"><title>(2.54784,15)</title></rect><rect x="402" y="199.658" width="6" height="0.341615" stroke="black" stroke-width="1" fill="blue" tooltip="enable"><title>(2.58645,11)</title></rect><rect x="408" y="199.534" width="6" height="0.465839" stroke="black" stroke-width="1" fill="blue" tooltip="enable"><title>(2.62505,15)</title></rect><rect x="414" y="199.596" width="6" height="0.403727" stroke="black" stroke-width="1" fill="blue" tooltip="enable"><title>(2.66365,13)</title></rect><rect x="420" y="199.503" width="6" height="0.496894" stroke="black" stroke-width="1" fill="blue" tooltip="enable"><title>(2.70226,16)</title></rect><rect x="426" y="199.752" width="6" height="0.248447" stroke="black" stroke-width="1" fill="blue" tooltip="enable"><title>(2.74086,8)</title></rect><rect x="432" y="199.658" width="6" height="0.341615" stroke="black" stroke-width="1" fill="blue" tooltip="enable"><title>(2.77947,11)</title></rect><rect x="438" y="199.876" width="6" height="0.124224" stroke="black" stroke-width="1" fill="blue" tooltip="enable"><title>(2.81807,4)</title></rect><rect x="444" y="199.658" width="6" height="0.341615" stroke="black" stroke-width="1" fill="blue" tooltip="enable"><title>(2.85667,11)</title></rect><rect x="450" y="199.752" width="6" height="0.248447" stroke="black" stroke-width="1" fill="blue" tooltip="enable"><title>(2.89528,8)</title></rect><rect x="456" y="199.752" width="6" height="0.248447" stroke="black" stroke-width="1" fill="blue" tooltip="enable"><title>(2.93388,8)</title></rect><rect x="462" y="199.876" width="6" height="0.124224" stroke="black" stroke-width="1" fill="blue" tooltip="enable"><title>(2.97248,4)</title></rect><rect x="468" y="199.752" width="6" height="0.248447" stroke="black" stroke-width="1" fill="blue" tooltip="enable"><title>(3.01109,8)</title></rect><rect x="474" y="199.752" width="6" height="0.248447" stroke="black" stroke-width="1" fill="blue" tooltip="enable"><title>(3.04969,8)</title></rect><rect x="480" y="199.938" width="6" height="0.0621118" stroke="black" stroke-width="1" fill="blue" tooltip="enable"><title>(3.08829,2)</title></rect><rect x="486" y="199.783" width="6" height="0.217391" stroke="black" stroke-width="1" fill="blue" tooltip="enable"><title>(3.1269,7)</title></rect><rect x="492" y="199.938" width="6" height="0.0621118" stroke="black" stroke-width="1" fill="blue" tooltip="enable"><title>(3.1655,2)</title></rect><rect x="498" y="199.907" width="6" height="0.0931677" stroke="black" stroke-width="1" fill="blue" tooltip="enable"><title>(3.20411,3)</title></rect><rect x="504" y="199.876" width="6" height="0.124224" stroke="black" stroke-width="1" fill="blue" tooltip="enable"><title>(3.24271,4)</title></rect><rect x="510" y="199.938" width="6" height="0.0621118" stroke="black" stroke-width="1" fill="blue" tooltip="enable"><title>(3.28131,2)</title></rect><rect x="516" y="199.845" width="6" height="0.15528" stroke="black" stroke-width="1" fill="blue" tooltip="enable"><title>(3.31992,5)</title></rect><rect x="522" y="199.938" width="6" height="0.0621118" stroke="black" stroke-width="1" fill="blue" tooltip="enable"><title>(3.35852,2)</title></rect><rect x="528" y="199.907" width="6" height="0.0931677" stroke="black" stroke-width="1" fill="blue" tooltip="enable"><title>(3.39712,3)</title></rect><rect x="534" y="199.969" width="6" height="0.0310559" stroke="black" stroke-width="1" fill="blue" tooltip="enable"><title>(3.43573,1)</title></rect><rect x="540" y="199.938" width="6" height="0.0621118" stroke="black" stroke-width="1" fill="blue" tooltip="enable"><title>(3.47433,2)</title></rect><rect x="546" y="199.876" width="6" height="0.124224" stroke="black" stroke-width="1" fill="blue" tooltip="enable"><title>(3.51293,4)</title></rect><rect x="552" y="199.938" width="6" height="0.0621118" stroke="black" stroke-width="1" fill="blue" tooltip="enable"><title>(3.55154,2)</title></rect><rect x="558" y="199.938" width="6" height="0.0621118" stroke="black" stroke-width="1" fill="blue" tooltip="enable"><title>(3.59014,2)</title></rect><rect x="564" y="199.876" width="6" height="0.124224" stroke="black" stroke-width="1" fill="blue" tooltip="enable"><title>(3.62875,4)</title></rect><rect x="570" y="199.938" width="6" height="0.0621118" stroke="black" stroke-width="1" fill="blue" tooltip="enable"><title>(3.66735,2)</title></rect><rect x="576" y="199.969" width="6" height="0.0310559" stroke="black" stroke-width="1" fill="blue" tooltip="enable"><title>(3.70595,1)</title></rect><rect x="582" y="199.969" width="6" height="0.0310559" stroke="black" stroke-width="1" fill="blue" tooltip="enable"><title>(3.74456,1)</title></rect><rect x="588" y="199.969" width="6" height="0.0310559" stroke="black" stroke-width="1" fill="blue" tooltip="enable"><title>(3.78316,1)</title></rect><rect x="594" y="199.938" width="6" height="0.0621118" stroke="black" stroke-width="1" fill="blue" tooltip="enable"><title>(3.82176,2)</title></rect><text x="30" y="240" font-size="20" fill="black">0</text>
<text x="600" y="240" font-size="20" fill="black">3.86037</text>
<polyline points="0,220,600,220" stroke="black" stroke-width="1" fill="none"/>
<text x="720" y="20" font-size="20" fill="black">6440</text>
<text x="720" y="200" font-size="20" fill="black">0</text>
<polyline points="660,0,660,200" stroke="black" stroke-width="1" fill="none"/>
</svg>